<?xml version="1.0" encoding="utf-8"?>
<!-- Generator: Adobe Illustrator 23.0.2, SVG Export Plug-In . SVG Version: 6.00 Build 0)  -->
<svg version="1.1" id="Layer_1" xmlns="http://www.w3.org/2000/svg" xmlns:xlink="http://www.w3.org/1999/xlink" x="0px" y="0px"
	 viewBox="0 0 2048 2048" style="enable-background:new 0 0 2048 2048;" xml:space="preserve">
<style type="text/css">
	.st0{fill:#1E1E1E;}
	.st1{fill:#F46C21;}
	.st2{fill:#232322;}
</style>
<path class="st0" d="M404.57,322.94l495.91,346.75c0,0,92.5,50.68,15.42,104.03l-323.76,258.73c0,0-41.11,48.01,20.56,85.35
	c0,0,19.61,6.15,43.65,0.09c21.29-5.36,46.19-21.37,61.88-43.92l205.38-174.89c0,0,87.36,5.33,105.35-101.36
	c0,0,1.44-7.43,6.42-10.35c8.53-4.99,22.79-4.8,24.41,10.35c0,0,5.14,101.36,102.78,96.02l187.57,173.38
	c0,0,48.82,69.35,133.61,40.01c0,0,45.82-7.93,7.45-63.07c-6.14-8.83-14.45-18.87-25.44-30.28l-323.76-261.4
	c0,0-33.4-21.34,10.28-74.69l467.65-328.08c0,0,51.39-10.67,33.4-72.02c0,0-17.99-16-77.09,26.67L1059,685.13
	c-7.25,5.34-16.94,5.46-24.31,0.29L448.25,274.66C448.25,274.66,386.58,237.59,404.57,322.94z"/>
<path class="st1" d="M512.63,280.45c0,0,120.63-31.06,202.85,27.62l306.28,264.06h40.6l310.91-261.4c0,0,106.88-68.87,190.72-21.02
	l-469.93,335.81c-7.37,5.27-15.56,9.17-24.21,11.53l-19.4,5.3c-5.39,1.47-11.04,1.57-16.46,0.27l-26.26-6.25
	c-8.04-1.91-15.64-5.43-22.38-10.36L512.63,280.45z"/>
<path class="st1" d="M611.2,242.39c0,0,283.96-115.4,419.19,66.72h23.73c0,0,227.13-194.62,419.01-57.47
	c0,0-147.46-169.23-431.57,29.83C1041.56,281.47,887.69,93.79,611.2,242.39z"/>
<rect x="1030.38" y="304.1" class="st1" width="23.73" height="323.99"/>
<path class="st2" d="M378.21,1211.81h1296.36c0.51,0,0.93-0.41,0.93-0.93v-33.63H377.28v33.63
	C377.28,1211.4,377.7,1211.81,378.21,1211.81z"/>
<g>
	<g>
		<path class="st1" d="M529.77,1549.88v99.18c0,8.44-1.85,15.84-5.56,22.21c-3.71,6.37-8.57,11.66-14.59,15.88
			c-6.02,4.22-12.89,7.39-20.59,9.5c-7.71,2.11-15.6,3.17-23.69,3.17s-15.98-1.06-23.69-3.17c-7.71-2.11-14.57-5.28-20.59-9.5
			c-6.02-4.22-10.87-9.51-14.53-15.88c-3.66-6.37-5.5-13.77-5.5-22.21v-80.52h32.34v80.52c0,3.7,0.9,6.96,2.72,9.77
			c1.81,2.81,4.21,5.16,7.2,7.05c2.99,1.89,6.4,3.29,10.23,4.22c3.83,0.92,7.77,1.39,11.81,1.39s7.98-0.46,11.81-1.39
			c3.83-0.93,7.24-2.33,10.23-4.22c2.99-1.89,5.41-4.24,7.26-7.05c1.85-2.81,2.78-6.07,2.78-9.77v-99.18H529.77z M449.04,1524.79
			c0-2,0.42-3.87,1.26-5.61c0.84-1.74,2-3.26,3.47-4.55c1.47-1.29,3.2-2.33,5.18-3.11c1.98-0.78,4.11-1.17,6.38-1.17
			c2.27,0,4.4,0.39,6.38,1.17c1.98,0.78,3.71,1.81,5.18,3.11c1.47,1.3,2.65,2.81,3.54,4.55c0.88,1.74,1.33,3.61,1.33,5.61
			s-0.44,3.87-1.33,5.61c-0.88,1.74-2.06,3.26-3.54,4.55c-1.47,1.3-3.2,2.32-5.18,3.05c-1.98,0.74-4.11,1.11-6.38,1.11
			c-2.27,0-4.4-0.37-6.38-1.11c-1.98-0.74-3.71-1.76-5.18-3.05c-1.47-1.29-2.63-2.81-3.47-4.55
			C449.46,1528.66,449.04,1526.78,449.04,1524.79z"/>
		<path class="st1" d="M592.37,1490.8c-2.19,3.11-4.47,5.35-6.82,6.72c-2.36,1.37-4.8,2.05-7.33,2.05c-2.02,0-3.83-0.24-5.43-0.72
			c-1.6-0.48-3.05-1.02-4.36-1.61c-1.31-0.59-2.57-1.13-3.79-1.61c-1.22-0.48-2.49-0.7-3.79-0.67c-1.31,0.04-2.68,0.44-4.11,1.22
			c-1.43,0.78-3.08,2.09-4.93,3.94l-6.32-7.66c1.77-1.7,3.33-3.11,4.67-4.22c1.35-1.11,2.57-1.98,3.66-2.61
			c1.09-0.63,2.15-1.07,3.16-1.33c1.01-0.26,2.1-0.39,3.28-0.39c2.53,0,4.8,0.48,6.82,1.44c2.02,0.96,4.02,1.76,6,2.39
			c1.98,0.63,4,0.72,6.06,0.28c2.06-0.44,4.36-2.07,6.89-4.89L592.37,1490.8z M585.68,1510.35v149.93h-32.22v-149.93H585.68z"/>
		<path class="st1" d="M664.07,1549.88v82.08h23.37v28.32h-25.77c-1.01,3.04-2.57,6.33-4.67,9.88c-2.11,3.55-5.08,7.2-8.91,10.94
			c-3.83,3.74-8.7,7.42-14.59,11.05c-5.9,3.63-13.1,7-21.6,10.11l-12.38-26.1c4.13-1.55,7.77-3.17,10.93-4.83s5.88-3.33,8.15-5
			c2.27-1.67,4.17-3.29,5.69-4.89c1.52-1.59,2.78-3.13,3.79-4.61c2.27-3.4,3.49-6.74,3.66-10v-96.96H664.07z"/>
		<path class="st1" d="M676.83,1660.28v-28.32h23.5v-32.32c0-7.11,1.47-13.7,4.42-19.77c2.95-6.07,6.99-11.33,12.13-15.77
			c5.14-4.44,11.12-7.92,17.94-10.44c6.82-2.52,14.15-3.78,21.98-3.78c7.83,0,15.18,1.28,22.05,3.83c6.86,2.55,12.87,6.05,18,10.5
			c5.14,4.44,9.2,9.66,12.19,15.66c2.99,6,4.48,12.4,4.48,19.21v32.88h23.37v28.32H676.83z M721.18,1524.79c0-2,0.44-3.87,1.33-5.61
			c0.88-1.74,2.06-3.26,3.54-4.55c1.47-1.29,3.2-2.33,5.18-3.11c1.98-0.78,4.11-1.17,6.38-1.17c2.27,0,4.4,0.39,6.38,1.17
			c1.98,0.78,3.71,1.81,5.18,3.11c1.47,1.3,2.63,2.81,3.47,4.55c0.84,1.74,1.26,3.61,1.26,5.61s-0.42,3.87-1.26,5.61
			c-0.84,1.74-2,3.26-3.47,4.55c-1.47,1.3-3.2,2.32-5.18,3.05c-1.98,0.74-4.11,1.11-6.38,1.11c-2.27,0-4.4-0.37-6.38-1.11
			c-1.98-0.74-3.71-1.76-5.18-3.05c-1.47-1.29-2.65-2.81-3.54-4.55C721.62,1528.66,721.18,1526.78,721.18,1524.79z M732.42,1631.96
			h48.77v-32.88c0-2.89-0.63-5.61-1.9-8.16c-1.26-2.55-3.01-4.78-5.24-6.66c-2.23-1.89-4.82-3.37-7.77-4.44
			c-2.95-1.07-6.11-1.61-9.48-1.61c-3.37,0-6.53,0.55-9.48,1.67c-2.95,1.11-5.54,2.63-7.77,4.55c-2.23,1.93-3.98,4.18-5.24,6.78
			c-1.26,2.59-1.9,5.41-1.9,8.44V1631.96z M760.09,1524.79c0-2,0.44-3.87,1.33-5.61c0.88-1.74,2.06-3.26,3.54-4.55
			c1.47-1.29,3.2-2.33,5.18-3.11c1.98-0.78,4.11-1.17,6.38-1.17c2.27,0,4.4,0.39,6.38,1.17c1.98,0.78,3.71,1.81,5.18,3.11
			c1.47,1.3,2.63,2.81,3.47,4.55c0.84,1.74,1.26,3.61,1.26,5.61s-0.42,3.87-1.26,5.61c-0.84,1.74-2,3.26-3.47,4.55
			c-1.47,1.3-3.2,2.32-5.18,3.05c-1.98,0.74-4.11,1.11-6.38,1.11c-2.27,0-4.4-0.37-6.38-1.11c-1.98-0.74-3.71-1.76-5.18-3.05
			c-1.47-1.29-2.65-2.81-3.54-4.55C760.53,1528.66,760.09,1526.78,760.09,1524.79z"/>
		<path class="st1" d="M884.03,1510.35v113.17c0,5.04-1.1,9.79-3.28,14.27c-2.19,4.48-5.2,8.39-9.03,11.72
			c-3.83,3.33-8.3,5.96-13.39,7.89c-5.1,1.93-10.55,2.89-16.36,2.89h-15.67v-28.32h15.67c2.78,0,5.12-0.81,7.01-2.44
			c1.9-1.63,2.84-3.63,2.84-6v-113.17H884.03z"/>
		<path class="st1" d="M939.93,1510.35v149.93h-32.22v-149.93H939.93z"/>
		<path class="st1" d="M1032.32,1510.35v53.42c7.41-4.22,15.41-7.59,24-10.11c8.59-2.52,17.1-3.78,25.52-3.78
			c7.33,0,14.23,0.93,20.72,2.78c6.49,1.85,12.19,4.83,17.12,8.94c4.93,4.11,8.82,9.44,11.69,15.99c2.86,6.55,4.29,14.57,4.29,24.04
			v30.32h23.37v28.32H981.91v-28.32h18.19v-121.61H1032.32z M1081.85,1578.21c-3.71,0-7.52,0.35-11.43,1.05
			c-3.92,0.71-7.71,1.7-11.37,3c-3.66,1.3-7.12,2.79-10.36,4.5c-3.24,1.7-6.09,3.55-8.53,5.55c-2.44,2-4.36,4.09-5.75,6.28
			c-1.39,2.18-2.08,4.39-2.08,6.61v26.77h71.26v-30.32c0-4.29-0.59-7.92-1.77-10.88c-1.18-2.96-2.76-5.37-4.74-7.22
			c-1.98-1.85-4.29-3.2-6.95-4.05C1087.47,1578.63,1084.71,1578.21,1081.85,1578.21z M1051.65,1524.79c0-2,0.42-3.87,1.26-5.61
			c0.84-1.74,2-3.26,3.47-4.55c1.47-1.29,3.2-2.33,5.18-3.11c1.98-0.78,4.11-1.17,6.38-1.17c2.27,0,4.4,0.39,6.38,1.17
			c1.98,0.78,3.71,1.81,5.18,3.11c1.47,1.3,2.65,2.81,3.54,4.55c0.88,1.74,1.33,3.61,1.33,5.61s-0.44,3.87-1.33,5.61
			c-0.88,1.74-2.07,3.26-3.54,4.55c-1.47,1.3-3.2,2.32-5.18,3.05c-1.98,0.74-4.11,1.11-6.38,1.11c-2.27,0-4.4-0.37-6.38-1.11
			c-1.98-0.74-3.71-1.76-5.18-3.05c-1.47-1.29-2.63-2.81-3.47-4.55C1052.07,1528.66,1051.65,1526.78,1051.65,1524.79z"/>
		<path class="st1" d="M1148.43,1685.6c0-2,0.42-3.87,1.26-5.61c0.84-1.74,2-3.26,3.47-4.55c1.47-1.3,3.2-2.32,5.18-3.05
			c1.98-0.74,4.11-1.11,6.38-1.11c2.27,0,4.4,0.37,6.38,1.11c1.98,0.74,3.71,1.76,5.18,3.05c1.47,1.29,2.65,2.81,3.54,4.55
			c0.88,1.74,1.33,3.61,1.33,5.61s-0.44,3.87-1.33,5.61c-0.88,1.74-2.07,3.26-3.54,4.55c-1.47,1.29-3.2,2.31-5.18,3.05
			c-1.98,0.74-4.11,1.11-6.38,1.11c-2.27,0-4.4-0.37-6.38-1.11c-1.98-0.74-3.71-1.76-5.18-3.05c-1.47-1.3-2.63-2.81-3.47-4.55
			C1148.85,1689.47,1148.43,1687.6,1148.43,1685.6z M1220.19,1549.88v82.08h23.5v28.32h-94.76v-28.32h39.04v-82.08H1220.19z
			 M1187.34,1685.6c0-2,0.42-3.87,1.26-5.61c0.84-1.74,2-3.26,3.47-4.55c1.47-1.3,3.2-2.32,5.18-3.05c1.98-0.74,4.11-1.11,6.38-1.11
			s4.4,0.37,6.38,1.11c1.98,0.74,3.71,1.76,5.18,3.05c1.47,1.29,2.63,2.81,3.47,4.55c0.84,1.74,1.26,3.61,1.26,5.61
			s-0.42,3.87-1.26,5.61c-0.84,1.74-2,3.26-3.47,4.55c-1.47,1.29-3.2,2.31-5.18,3.05c-1.98,0.74-4.11,1.11-6.38,1.11
			s-4.4-0.37-6.38-1.11c-1.98-0.74-3.71-1.76-5.18-3.05c-1.47-1.3-2.63-2.81-3.47-4.55
			C1187.76,1689.47,1187.34,1687.6,1187.34,1685.6z"/>
		<path class="st1" d="M1233.08,1660.28v-28.32h23.5v-32.32c0-7.11,1.47-13.7,4.42-19.77c2.95-6.07,6.99-11.33,12.13-15.77
			c5.14-4.44,11.12-7.92,17.94-10.44c6.82-2.52,14.15-3.78,21.98-3.78c7.83,0,15.18,1.28,22.05,3.83c6.86,2.55,12.87,6.05,18,10.5
			c5.14,4.44,9.2,9.66,12.19,15.66c2.99,6,4.49,12.4,4.49,19.21v32.88h23.37v28.32H1233.08z M1288.67,1631.96h48.89v-32.88
			c0-2.89-0.65-5.61-1.96-8.16c-1.31-2.55-3.05-4.78-5.24-6.66c-2.19-1.89-4.78-3.37-7.77-4.44c-2.99-1.07-6.17-1.61-9.54-1.61
			c-3.37,0-6.53,0.55-9.48,1.67c-2.95,1.11-5.54,2.63-7.77,4.55c-2.23,1.93-3.98,4.18-5.24,6.78c-1.26,2.59-1.9,5.41-1.9,8.44
			V1631.96z M1296.63,1524.79c0-2,0.44-3.87,1.33-5.61c0.88-1.74,2.06-3.26,3.54-4.55c1.47-1.29,3.2-2.33,5.18-3.11
			c1.98-0.78,4.11-1.17,6.38-1.17c2.27,0,4.38,0.39,6.32,1.17c1.94,0.78,3.64,1.81,5.12,3.11c1.47,1.3,2.63,2.81,3.47,4.55
			c0.84,1.74,1.26,3.61,1.26,5.61s-0.42,3.87-1.26,5.61c-0.84,1.74-2,3.26-3.47,4.55c-1.47,1.3-3.18,2.32-5.12,3.05
			c-1.94,0.74-4.04,1.11-6.32,1.11c-2.27,0-4.4-0.37-6.38-1.11c-1.98-0.74-3.71-1.76-5.18-3.05c-1.47-1.29-2.65-2.81-3.54-4.55
			C1297.07,1528.66,1296.63,1526.78,1296.63,1524.79z"/>
		<path class="st1" d="M1403.14,1561.99c2.61-1.11,6-2.37,10.17-3.78c4.17-1.41,8.7-2.74,13.58-4c4.88-1.26,9.92-2.31,15.1-3.17
			c5.18-0.85,10.13-1.28,14.85-1.28c7.16,0,14.15,0.76,20.97,2.28c6.82,1.52,12.91,4.22,18.26,8.11c5.35,3.89,9.64,9.18,12.89,15.88
			c3.24,6.7,4.86,15.2,4.86,25.49v30.43h23.5v28.32h-154.77v-28.32h99.18v-30.43c0-4.59-0.72-8.4-2.15-11.44
			c-1.43-3.03-3.33-5.44-5.69-7.22c-2.36-1.78-5.01-3.02-7.96-3.72c-2.95-0.7-5.98-1.05-9.1-1.05c-3.37,0-6.95,0.33-10.74,1
			c-3.79,0.67-7.52,1.46-11.18,2.39c-3.66,0.93-7.08,1.94-10.23,3.05c-3.16,1.11-5.75,2.11-7.77,3L1403.14,1561.99z"/>
		<path class="st1" d="M1526.7,1524.79c0-2,0.42-3.87,1.26-5.61c0.84-1.74,2-3.26,3.47-4.55c1.47-1.29,3.2-2.33,5.18-3.11
			c1.98-0.78,4.11-1.17,6.38-1.17c2.27,0,4.4,0.39,6.38,1.17c1.98,0.78,3.71,1.81,5.18,3.11c1.47,1.3,2.65,2.81,3.54,4.55
			c0.88,1.74,1.33,3.61,1.33,5.61s-0.44,3.87-1.33,5.61c-0.88,1.74-2.07,3.26-3.54,4.55c-1.47,1.3-3.2,2.32-5.18,3.05
			c-1.98,0.74-4.11,1.11-6.38,1.11c-2.27,0-4.4-0.37-6.38-1.11c-1.98-0.74-3.71-1.76-5.18-3.05c-1.47-1.29-2.63-2.81-3.47-4.55
			C1527.12,1528.66,1526.7,1526.78,1526.7,1524.79z M1598.08,1549.88v82.08h23.5v28.32h-94.76v-28.32h39.04v-82.08H1598.08z
			 M1565.61,1524.79c0-2,0.42-3.87,1.26-5.61c0.84-1.74,2-3.26,3.47-4.55c1.47-1.29,3.2-2.33,5.18-3.11
			c1.98-0.78,4.11-1.17,6.38-1.17s4.4,0.39,6.38,1.17c1.98,0.78,3.71,1.81,5.18,3.11c1.47,1.3,2.63,2.81,3.47,4.55
			c0.84,1.74,1.26,3.61,1.26,5.61s-0.42,3.87-1.26,5.61c-0.84,1.74-2,3.26-3.47,4.55c-1.47,1.3-3.2,2.32-5.18,3.05
			c-1.98,0.74-4.11,1.11-6.38,1.11s-4.4-0.37-6.38-1.11c-1.98-0.74-3.71-1.76-5.18-3.05c-1.47-1.29-2.63-2.81-3.47-4.55
			C1566.03,1528.66,1565.61,1526.78,1565.61,1524.79z"/>
		<path class="st1" d="M1668.71,1510.35v113.17c0,5.04-1.1,9.79-3.29,14.27c-2.19,4.48-5.2,8.39-9.03,11.72
			c-3.83,3.33-8.3,5.96-13.39,7.89c-5.1,1.93-10.55,2.89-16.36,2.89h-15.67v-28.32h15.67c2.78,0,5.12-0.81,7.01-2.44
			c1.9-1.63,2.84-3.63,2.84-6v-113.17H1668.71z"/>
	</g>
</g>
<g>
	<g>
		<path class="st1" d="M490.33,1336.11h-33.58c-2.65,0-4.92,0.82-6.82,2.45c-1.9,1.63-2.85,3.69-2.85,6.15v21.24h9.17
			c6.69,0,12.6,0.94,17.72,2.83c5.12,1.89,9.38,4.56,12.76,8.01c3.39,3.45,5.95,7.57,7.68,12.36c1.73,4.79,2.6,10.09,2.6,15.9
			c0,8.35-1.82,15.67-5.45,21.95c-3.64,6.28-8.41,11.51-14.31,15.69c-5.91,4.17-12.64,7.32-20.2,9.42
			c-7.56,2.11-15.3,3.16-23.24,3.16c-7.85,0-15.55-1.04-23.11-3.1c-7.56-2.07-14.29-5.19-20.2-9.37
			c-5.91-4.18-10.68-9.39-14.31-15.63c-3.64-6.25-5.45-13.54-5.45-21.9v-78.76h31.72v78.76c0,3.7,0.89,6.94,2.66,9.7
			c1.78,2.76,4.13,5.07,7.06,6.92c2.93,1.85,6.28,3.25,10.04,4.19c3.76,0.94,7.62,1.42,11.59,1.42c3.97,0,7.83-0.47,11.59-1.42
			c3.76-0.94,7.1-2.36,10.04-4.25c2.93-1.89,5.31-4.23,7.13-7.03c1.82-2.79,2.73-6.05,2.73-9.75c0-3.41-0.76-6.15-2.29-8.22
			c-1.53-2.07-3.78-3.1-6.75-3.1h-40.9v-49.02c0-5.01,1.09-9.73,3.28-14.16c2.19-4.43,5.14-8.3,8.86-11.6s8.1-5.92,13.14-7.84
			c5.04-1.92,10.41-2.89,16.11-2.89h33.58V1336.11z"/>
		<path class="st1" d="M536.73,1427.51h39.78c4.71,0,8.92-0.95,12.64-2.83c3.72-1.89,6.57-4.61,8.55-8.17h-36.56
			c-5.62,0-10.91-0.94-15.86-2.83c-4.96-1.89-9.29-4.45-13.01-7.68c-3.72-3.23-6.65-7.03-8.8-11.38c-2.15-4.36-3.22-9-3.22-13.94
			v-22c0-6.97,1.47-13.51,4.4-19.61c2.93-6.1,6.94-11.44,12.02-16.01s11.03-8.19,17.85-10.84c6.82-2.65,14.07-3.98,21.75-3.98
			c7.76,0,15.06,1.36,21.87,4.08c6.82,2.72,12.76,6.37,17.85,10.95c5.08,4.58,9.09,9.88,12.02,15.9c2.93,6.03,4.4,12.35,4.4,18.96
			v47.93c0,6.75-1.47,13.13-4.4,19.12c-2.93,5.99-6.92,11.22-11.96,15.69c-5.04,4.47-10.97,7.99-17.78,10.57
			c-6.82,2.58-14.07,3.87-21.75,3.87h-39.78V1427.51z M600.8,1388.73v-30.61c0-2.9-0.64-5.7-1.92-8.39
			c-1.28-2.69-3.04-5.03-5.27-7.03c-2.23-2-4.83-3.6-7.81-4.79c-2.97-1.2-6.16-1.8-9.54-1.8c-3.39,0-6.55,0.58-9.48,1.74
			c-2.93,1.16-5.5,2.76-7.68,4.79c-2.19,2.03-3.92,4.43-5.2,7.19c-1.28,2.76-1.92,5.7-1.92,8.82v22c0,2.25,0.89,4.16,2.66,5.72
			c1.78,1.56,3.94,2.34,6.51,2.34H600.8z M588.53,1265.96h-9.91h0.12c-2.81,0.07-4.85,0.81-6.13,2.22c-1.28,1.41-1.92,2.94-1.92,4.6
			c0,1.08,0.12,2.13,0.37,3.14c0.25,1.01,0.58,1.93,0.99,2.76c0.41,0.83,0.93,1.5,1.55,2c0.62,0.5,1.26,0.76,1.92,0.76h17.6v10.35
			h-38.17v-10.35l6.07,0.11c-1.32-2.9-1.98-5.81-1.98-8.71c0-2.18,0.35-4.28,1.05-6.32c0.7-2.03,1.82-3.85,3.35-5.45
			c1.53-1.6,3.53-2.89,6.01-3.87s5.49-1.51,9.05-1.58h10.04V1265.96z"/>
		<path class="st1" d="M709.42,1308.23v80.5h22.93v27.78h-25.28c-0.99,2.98-2.52,6.21-4.59,9.7c-2.07,3.49-4.98,7.06-8.74,10.73
			c-3.76,3.67-8.53,7.28-14.31,10.84c-5.78,3.56-12.85,6.86-21.19,9.91l-12.14-25.6c4.05-1.53,7.62-3.1,10.72-4.74
			c3.1-1.63,5.76-3.27,7.99-4.9c2.23-1.63,4.09-3.23,5.58-4.79c1.49-1.56,2.73-3.07,3.72-4.52c2.23-3.34,3.43-6.61,3.59-9.8v-95.1
			H709.42z"/>
		<path class="st1" d="M778.57,1269.45v111.01c0,4.94-1.07,9.6-3.22,14c-2.15,4.39-5.1,8.22-8.86,11.49
			c-3.76,3.27-8.14,5.85-13.14,7.73c-5,1.89-10.35,2.83-16.05,2.83h-15.37v-27.78h15.37c2.73,0,5.02-0.8,6.88-2.4
			c1.86-1.6,2.79-3.56,2.79-5.88v-111.01H778.57z"/>
		<path class="st1" d="M833.4,1269.45v147.06h-31.6v-147.06H833.4z"/>
		<path class="st1" d="M1000.52,1388.73v27.78h-54.53v-58.5c0-2.98-0.64-5.79-1.92-8.44c-1.28-2.65-3.04-4.97-5.27-6.97
			c-2.23-2-4.83-3.58-7.81-4.74c-2.97-1.16-6.16-1.74-9.54-1.74c-3.39,0-6.57,0.58-9.54,1.74c-2.97,1.16-5.56,2.76-7.75,4.79
			c-2.19,2.03-3.92,4.43-5.2,7.19c-1.28,2.76-1.92,5.7-1.92,8.82v22c0,2.25,0.89,4.16,2.66,5.72c1.78,1.56,3.98,2.34,6.63,2.34
			h18.59v27.78h-18.59c-5.62,0-10.91-0.94-15.86-2.83c-4.96-1.89-9.29-4.45-13.01-7.68c-3.72-3.23-6.65-7.03-8.8-11.38
			c-2.15-4.36-3.22-9-3.22-13.94v-22c0-6.97,1.47-13.51,4.4-19.61c2.93-6.1,6.94-11.42,12.02-15.96
			c5.08-4.54,11.03-8.13,17.85-10.78c6.82-2.65,14.07-3.98,21.75-3.98c7.68,0,14.95,1.34,21.81,4.03
			c6.86,2.69,12.83,6.3,17.91,10.84c5.08,4.54,9.09,9.82,12.02,15.85c2.93,6.03,4.36,12.38,4.28,19.06v30.61H1000.52z
			 M886.26,1283.61c0-1.96,0.41-3.79,1.24-5.5c0.82-1.71,1.96-3.19,3.41-4.47c1.44-1.27,3.14-2.29,5.08-3.05
			c1.94-0.76,4.03-1.14,6.26-1.14c2.23,0,4.32,0.38,6.26,1.14c1.94,0.76,3.63,1.78,5.08,3.05c1.44,1.27,2.58,2.76,3.41,4.47
			c0.83,1.71,1.24,3.54,1.24,5.5c0,1.96-0.41,3.8-1.24,5.5c-0.83,1.71-1.96,3.2-3.41,4.47c-1.45,1.27-3.14,2.27-5.08,3
			c-1.94,0.73-4.03,1.09-6.26,1.09c-2.23,0-4.32-0.36-6.26-1.09c-1.94-0.73-3.64-1.72-5.08-3c-1.45-1.27-2.58-2.76-3.41-4.47
			C886.67,1287.4,886.26,1285.57,886.26,1283.61z M924.3,1283.61c0-1.96,0.43-3.79,1.3-5.5c0.87-1.71,2.02-3.19,3.47-4.47
			c1.44-1.27,3.14-2.29,5.08-3.05c1.94-0.76,4.03-1.14,6.26-1.14s4.29,0.38,6.2,1.14c1.9,0.76,3.57,1.78,5.02,3.05
			c1.44,1.27,2.58,2.76,3.41,4.47c0.83,1.71,1.24,3.54,1.24,5.5c0,1.96-0.41,3.8-1.24,5.5c-0.83,1.71-1.96,3.2-3.41,4.47
			c-1.45,1.27-3.12,2.27-5.02,3c-1.9,0.73-3.97,1.09-6.2,1.09s-4.32-0.36-6.26-1.09c-1.94-0.73-3.64-1.72-5.08-3
			c-1.45-1.27-2.6-2.76-3.47-4.47C924.74,1287.4,924.3,1285.57,924.3,1283.61z"/>
		<path class="st1" d="M990.11,1441.35c0-1.96,0.41-3.8,1.24-5.5c0.83-1.71,1.96-3.2,3.41-4.47c1.44-1.27,3.14-2.27,5.08-3
			c1.94-0.73,4.03-1.09,6.26-1.09c2.23,0,4.32,0.36,6.26,1.09c1.94,0.73,3.63,1.72,5.08,3c1.44,1.27,2.6,2.76,3.47,4.47
			c0.87,1.71,1.3,3.54,1.3,5.5c0,1.96-0.43,3.79-1.3,5.5c-0.87,1.71-2.03,3.19-3.47,4.47c-1.45,1.27-3.14,2.27-5.08,3
			c-1.94,0.73-4.03,1.09-6.26,1.09c-2.23,0-4.32-0.36-6.26-1.09c-1.94-0.73-3.64-1.73-5.08-3c-1.44-1.27-2.58-2.76-3.41-4.47
			C990.52,1445.14,990.11,1443.31,990.11,1441.35z M1060.49,1308.23v80.5h23.05v27.78H990.6v-27.78h38.29v-80.5H1060.49z
			 M1028.27,1441.35c0-1.96,0.41-3.8,1.24-5.5c0.82-1.71,1.96-3.2,3.41-4.47c1.44-1.27,3.14-2.27,5.08-3
			c1.94-0.73,4.03-1.09,6.26-1.09s4.32,0.36,6.26,1.09c1.94,0.73,3.63,1.72,5.08,3c1.44,1.27,2.58,2.76,3.41,4.47
			c0.82,1.71,1.24,3.54,1.24,5.5c0,1.96-0.41,3.79-1.24,5.5c-0.83,1.71-1.96,3.19-3.41,4.47c-1.45,1.27-3.14,2.27-5.08,3
			c-1.94,0.73-4.03,1.09-6.26,1.09s-4.32-0.36-6.26-1.09c-1.94-0.73-3.64-1.73-5.08-3c-1.45-1.27-2.58-2.76-3.41-4.47
			C1028.69,1445.14,1028.27,1443.31,1028.27,1441.35z"/>
		<path class="st1" d="M1073.13,1388.73h23.67c-0.25-1.38-0.41-2.76-0.5-4.14c-0.08-1.38-0.12-2.79-0.12-4.25v-22.33
			c0-6.83,1.45-13.25,4.34-19.28c2.89-6.03,6.86-11.31,11.9-15.85c5.04-4.54,10.91-8.12,17.6-10.73c6.69-2.62,13.88-3.92,21.56-3.92
			c7.6,0,14.79,1.36,21.56,4.08c6.77,2.72,12.68,6.37,17.72,10.95c5.04,4.58,9,9.86,11.9,15.85c2.89,5.99,4.34,12.29,4.34,18.9
			v22.44c0.08,1.52,0.08,2.94,0,4.25c-0.08,1.31-0.29,2.65-0.62,4.03h23.55v27.78h-40.28c-5.04,4.36-10.78,7.73-17.23,10.13
			s-13.43,3.59-20.94,3.59c-15.29,0-28.01-4.58-38.17-13.73h-40.28V1388.73z M1151.58,1336.11c-3.31,0-6.4,0.58-9.29,1.74
			c-2.89,1.16-5.43,2.72-7.62,4.68c-2.19,1.96-3.9,4.27-5.14,6.92c-1.24,2.65-1.86,5.5-1.86,8.55v22.33c0,3.05,0.62,5.92,1.86,8.61
			c1.24,2.69,2.95,5.01,5.14,6.97c2.19,1.96,4.73,3.52,7.62,4.68c2.89,1.16,5.99,1.74,9.29,1.74c3.3,0,6.4-0.58,9.29-1.74
			c2.89-1.16,5.43-2.76,7.62-4.79c2.19-2.03,3.9-4.36,5.14-6.97s1.86-5.41,1.86-8.39v-22.44c0-2.9-0.62-5.68-1.86-8.33
			c-1.24-2.65-2.96-4.99-5.14-7.03c-2.19-2.03-4.73-3.63-7.62-4.79C1157.98,1336.7,1154.88,1336.11,1151.58,1336.11z"/>
		<path class="st1" d="M1219.61,1441.35c0-1.96,0.42-3.8,1.24-5.5c0.83-1.71,1.96-3.2,3.41-4.47c1.44-1.27,3.14-2.27,5.08-3
			c1.94-0.73,4.03-1.09,6.26-1.09s4.32,0.36,6.26,1.09c1.94,0.73,3.63,1.72,5.08,3c1.45,1.27,2.6,2.76,3.47,4.47
			c0.87,1.71,1.3,3.54,1.3,5.5c0,1.96-0.43,3.79-1.3,5.5c-0.87,1.71-2.03,3.19-3.47,4.47c-1.45,1.27-3.14,2.27-5.08,3
			c-1.94,0.73-4.03,1.09-6.26,1.09s-4.32-0.36-6.26-1.09c-1.94-0.73-3.64-1.73-5.08-3c-1.44-1.27-2.58-2.76-3.41-4.47
			C1220.03,1445.14,1219.61,1443.31,1219.61,1441.35z M1289.75,1308.23v72.12c0,5.01-1.1,9.71-3.28,14.11
			c-2.19,4.39-5.14,8.22-8.86,11.49c-3.72,3.27-8.06,5.85-13.01,7.73c-4.96,1.89-10.24,2.83-15.86,2.83h-28.87v-27.78h28.87
			c2.56,0,4.77-0.82,6.63-2.45c1.86-1.63,2.79-3.61,2.79-5.94v-72.12H1289.75z M1257.78,1441.35c0-1.96,0.41-3.8,1.24-5.5
			c0.83-1.71,1.96-3.2,3.41-4.47c1.44-1.27,3.14-2.27,5.08-3c1.94-0.73,4.03-1.09,6.26-1.09s4.32,0.36,6.26,1.09
			c1.94,0.73,3.63,1.72,5.08,3c1.44,1.27,2.58,2.76,3.41,4.47c0.83,1.71,1.24,3.54,1.24,5.5c0,1.96-0.41,3.79-1.24,5.5
			c-0.83,1.71-1.96,3.19-3.41,4.47c-1.45,1.27-3.14,2.27-5.08,3c-1.94,0.73-4.03,1.09-6.26,1.09s-4.32-0.36-6.26-1.09
			c-1.94-0.73-3.64-1.73-5.08-3c-1.45-1.27-2.58-2.76-3.41-4.47C1258.19,1445.14,1257.78,1443.31,1257.78,1441.35z"/>
		<path class="st1" d="M1319.31,1308.23c15.2,0,28.21,1.11,39.04,3.32c10.82,2.22,19.66,5.47,26.52,9.75
			c6.86,4.29,11.9,9.57,15.12,15.85c3.22,6.28,4.83,13.53,4.83,21.73v21.79c0,4.94-1.07,9.59-3.22,13.94
			c-2.15,4.36-5.1,8.15-8.86,11.38c-3.76,3.23-8.16,5.79-13.2,7.68c-5.04,1.89-10.41,2.83-16.11,2.83h-50.44v-27.78h50.44
			c2.64,0,4.91-0.78,6.82-2.34c1.9-1.56,2.85-3.47,2.85-5.72v-21.79c0-3.7-1.01-6.97-3.04-9.8c-2.03-2.83-5.21-5.21-9.54-7.13
			c-4.34-1.92-9.89-3.39-16.67-4.41c-6.78-1.02-14.95-1.53-24.54-1.53V1308.23z"/>
		<path class="st1" d="M1459.77,1269.45v111.01c0,2.33,0.93,4.29,2.79,5.88c1.86,1.6,4.11,2.4,6.75,2.4h15.37v27.78h-15.37
			c-5.7,0-11.05-0.94-16.05-2.83c-5-1.89-9.36-4.47-13.07-7.73c-3.72-3.27-6.67-7.1-8.86-11.49c-2.19-4.39-3.28-9.06-3.28-14
			v-111.01H1459.77z"/>
		<path class="st1" d="M1586.42,1286l-28.38,22.22c8.26,0.15,16.34,1.02,24.23,2.61c7.89,1.6,14.91,4.32,21.07,8.17
			c6.15,3.85,11.11,9.01,14.87,15.47c3.76,6.46,5.64,14.6,5.64,24.4v21.79c0,4.94-1.07,9.59-3.22,13.94
			c-2.15,4.36-5.1,8.15-8.86,11.38c-3.76,3.23-8.16,5.79-13.2,7.68c-5.04,1.89-10.41,2.83-16.11,2.83h-108.19v-27.78h108.19
			c2.73,0,5.04-0.78,6.94-2.34c1.9-1.56,2.85-3.47,2.85-5.72v-21.79c0-4.5-1.05-8.22-3.16-11.17s-4.9-5.28-8.37-7.03
			s-7.37-2.96-11.71-3.65c-4.34-0.69-8.74-1.04-13.2-1.04c-4.38,0-8.92,0.33-13.63,0.98s-9.21,1.43-13.51,2.34
			c-4.3,0.91-8.2,1.89-11.71,2.94c-3.51,1.05-6.26,1.98-8.24,2.78l-14-22.44l68.9-56.1L1586.42,1286z"/>
		<path class="st1" d="M1677.19,1232.84h-9.91h0.12c-2.81,0.07-4.85,0.81-6.13,2.22c-1.28,1.41-1.92,2.94-1.92,4.6
			c0,1.08,0.12,2.13,0.37,3.14c0.25,1.01,0.58,1.93,0.99,2.76c0.41,0.83,0.93,1.5,1.55,2c0.62,0.51,1.26,0.76,1.92,0.76h17.6v10.35
			h-38.17v-10.35h6.07c-1.32-2.89-1.98-5.78-1.98-8.68c0-2.17,0.35-4.27,1.05-6.29c0.7-2.03,1.82-3.83,3.35-5.42
			c1.53-1.59,3.53-2.87,6.01-3.85c2.48-0.98,5.49-1.5,9.05-1.57h10.04V1232.84z M1678.68,1269.45v147.06h-31.6v-147.06H1678.68z"/>
	</g>
</g>
<g>
</g>
<g>
</g>
<g>
</g>
<g>
</g>
<g>
</g>
</svg>
