<svg width="22" height="23" viewBox="0 0 22 23" fill="none" xmlns="http://www.w3.org/2000/svg">
<path d="M5.52416 14.349L7.24455 2.26814C7.25718 2.17867 7.29527 2.0958 7.35342 2.03126C7.41158 1.96672 7.48687 1.92378 7.56862 1.9085C7.65038 1.89323 7.73446 1.9064 7.80898 1.94615C7.8835 1.9859 7.94467 2.05022 7.98385 2.13001L9.8343 5.92039L5.52416 14.349ZM17.7449 17.2801L16.1066 6.16235C16.0943 6.08454 16.0626 6.01191 16.0152 5.95231C15.9677 5.89272 15.9062 5.84845 15.8373 5.82431C15.7684 5.80017 15.6948 5.79707 15.6244 5.81535C15.554 5.83363 15.4895 5.87259 15.438 5.92802L5.10606 17.2801L10.8232 20.7961C11.182 21.0152 11.6193 21.0152 11.978 20.7961L17.7449 17.2801ZM13.0988 7.57791L11.7746 4.81252C11.7412 4.7431 11.691 4.68498 11.6294 4.64444C11.5679 4.60389 11.4974 4.58246 11.4255 4.58246C11.3536 4.58246 11.2831 4.60389 11.2216 4.64444C11.16 4.68498 11.1098 4.7431 11.0764 4.81252L5.2623 16.1837L13.0988 7.57791Z" fill="#F8F8F8"/>
</svg>
