<svg width="20" height="20" viewBox="0 0 20 20" fill="none" xmlns="http://www.w3.org/2000/svg">
<path fill-rule="evenodd" clip-rule="evenodd" d="M0.833328 2.36501C0.833328 1.95879 0.9947 1.5692 1.28194 1.28196C1.56919 0.994717 1.95877 0.833346 2.365 0.833346H17.6333C17.8346 0.833017 18.034 0.872398 18.2201 0.949234C18.4062 1.02607 18.5753 1.13885 18.7177 1.28113C18.8601 1.4234 18.9731 1.59237 19.0501 1.77835C19.1272 1.96434 19.1668 2.1637 19.1667 2.36501V17.6333C19.1669 17.8347 19.1274 18.0341 19.0505 18.2202C18.9735 18.4063 18.8607 18.5754 18.7183 18.7178C18.576 18.8602 18.407 18.9731 18.2209 19.0502C18.0349 19.1272 17.8355 19.1668 17.6342 19.1667H2.365C2.16378 19.1667 1.96454 19.127 1.77866 19.05C1.59277 18.973 1.42389 18.8601 1.28165 18.7178C1.13941 18.5755 1.0266 18.4065 0.94968 18.2206C0.872756 18.0347 0.833219 17.8354 0.833328 17.6342V2.36501ZM8.09 7.82335H10.5725V9.07001C10.9308 8.35335 11.8475 7.70835 13.225 7.70835C15.8658 7.70835 16.4917 9.13585 16.4917 11.755V16.6067H13.8192V12.3517C13.8192 10.86 13.4608 10.0183 12.5508 10.0183C11.2883 10.0183 10.7633 10.9258 10.7633 12.3517V16.6067H8.09V7.82335ZM3.50666 16.4925H6.18V7.70835H3.50666V16.4917V16.4925ZM6.5625 4.84335C6.56754 5.07224 6.52681 5.29983 6.4427 5.51277C6.35858 5.72571 6.23279 5.91971 6.07269 6.08337C5.91259 6.24704 5.72141 6.37707 5.51037 6.46585C5.29934 6.55463 5.07269 6.60036 4.84375 6.60036C4.6148 6.60036 4.38815 6.55463 4.17712 6.46585C3.96608 6.37707 3.7749 6.24704 3.6148 6.08337C3.4547 5.91971 3.32891 5.72571 3.2448 5.51277C3.16069 5.29983 3.11995 5.07224 3.125 4.84335C3.13489 4.39406 3.32032 3.9665 3.64157 3.65225C3.96282 3.338 4.39435 3.16203 4.84375 3.16203C5.29314 3.16203 5.72467 3.338 6.04592 3.65225C6.36717 3.9665 6.5526 4.39406 6.5625 4.84335Z" fill="#F8F8F8"/>
</svg>
