<svg width="21" height="17" viewBox="0 0 21 17" fill="none" xmlns="http://www.w3.org/2000/svg">
<g clip-path="url(#clip0_38_112)">
<path d="M18.0673 9.39969C17.3732 9.4036 16.7699 9.58604 16.2648 9.85575C16.0794 9.45514 15.8941 9.09825 15.8614 8.83645C15.825 8.53111 15.7815 8.34467 15.825 7.97978C15.8687 7.61489 16.0649 7.09529 16.0612 7.05566C16.0577 7.01602 16.0176 6.82958 15.6179 6.82567C15.2181 6.82167 14.8729 6.90894 14.8329 7.02393C14.7929 7.13893 14.7166 7.40073 14.6657 7.67035C14.5967 8.06705 13.8663 9.48287 13.4484 10.2246C13.3139 9.93511 13.1976 9.68122 13.1721 9.47896C13.1358 9.17361 13.0922 8.98717 13.1358 8.62228C13.1794 8.2574 13.3757 7.73788 13.372 7.69816C13.3684 7.65853 13.3284 7.47209 12.9287 7.46817C12.5288 7.46418 12.1836 7.55144 12.1437 7.66644C12.1037 7.78152 12.0601 8.05114 11.9765 8.31294C11.8929 8.57474 10.9226 10.9386 10.6682 11.5493C10.5654 11.7965 10.4576 12.0411 10.3448 12.2831C10.3448 12.2831 10.3411 12.295 10.3302 12.3148C10.2948 12.3906 10.2585 12.466 10.2213 12.5409V12.5448C10.1667 12.6519 10.1086 12.751 10.0795 12.751C10.0577 12.751 10.0177 12.4655 10.0868 12.0768C10.2321 11.2558 10.5774 9.97874 10.5738 9.93511C10.5738 9.91129 10.6392 9.68921 10.3485 9.57414C10.0649 9.45914 9.96324 9.64949 9.93775 9.64949C9.91234 9.64949 9.89411 9.71694 9.89411 9.71694C9.89411 9.71694 10.2104 8.28121 9.29089 8.28121C8.71675 8.28121 7.92446 8.96735 7.53198 9.58604C7.08582 9.85102 6.64003 10.1168 6.19462 10.3833C5.9803 10.5142 5.75858 10.6451 5.55143 10.768C5.53685 10.7521 5.52236 10.7322 5.50778 10.7164C4.39573 9.41951 2.33888 8.50329 2.42609 6.76222C2.45882 6.12762 2.65864 4.46182 6.37637 2.43913C9.43624 0.793143 11.8712 1.24921 12.2927 2.2606C12.8959 3.70432 10.9881 6.38542 7.82634 6.77404C6.61983 6.92084 5.98747 6.41315 5.82763 6.2228C5.66046 6.02445 5.63497 6.01254 5.57317 6.05226C5.47147 6.1118 5.53685 6.29025 5.57317 6.39333C5.66771 6.66296 6.05652 7.13893 6.71429 7.373C7.29576 7.57917 8.70942 7.69425 10.4211 6.97239C12.3363 6.16326 13.8336 3.91449 13.3938 2.03061C12.9541 0.118912 10.0468 -0.511685 7.29576 0.555159C5.66046 1.18984 3.88697 2.18924 2.61142 3.49015C1.09597 5.03688 0.856091 6.38143 0.954211 6.94466C1.30679 8.94354 3.8325 10.2445 4.84277 11.2082C4.79187 11.2399 4.74457 11.2677 4.70467 11.2916C4.19949 11.5652 2.27341 12.6638 1.79372 13.8259C1.24865 15.1426 1.88101 16.0866 2.2989 16.2134C3.59628 16.6061 4.92997 15.9002 5.64588 14.7341C6.36179 13.5681 6.27458 12.053 5.94391 11.3589C5.94024 11.351 5.93666 11.343 5.92933 11.3351C6.06018 11.2518 6.19462 11.1646 6.32548 11.0813C6.56597 10.9262 6.80952 10.7767 7.05596 10.6331C6.93235 11.002 6.84148 11.4422 6.79792 12.0768C6.74336 12.8225 7.02315 13.7901 7.39022 14.1708C7.5538 14.3376 7.74638 14.3415 7.86999 14.3415C8.29878 14.3415 8.49144 13.9528 8.70584 13.4927C8.96746 12.9296 9.20368 12.2751 9.20368 12.2751C9.20368 12.2751 8.90932 14.044 9.70886 14.044C9.99955 14.044 10.2939 13.6315 10.4248 13.4213V13.4253C10.4248 13.4253 10.432 13.4133 10.4466 13.3856C10.4757 13.3341 10.4938 13.3023 10.4938 13.3023V13.2944C10.6101 13.0723 10.8718 12.5686 11.2606 11.7317C11.7621 10.653 12.2455 9.30451 12.2455 9.30451C12.2455 9.30451 12.2891 9.63367 12.4381 10.181C12.5253 10.5023 12.7069 10.8552 12.8524 11.1963C12.7361 11.3748 12.6634 11.4739 12.6634 11.4739L12.667 11.4779C12.5725 11.6127 12.4708 11.7595 12.3581 11.9023C11.962 12.4179 11.4896 13.0089 11.4241 13.1794C11.3477 13.3816 11.366 13.5284 11.5114 13.6474C11.6168 13.7347 11.8057 13.7465 11.9983 13.7347C12.3545 13.7069 12.6052 13.6117 12.7288 13.5522C12.9214 13.4769 13.1467 13.3618 13.3575 13.1913C13.7463 12.8779 13.9825 12.4298 13.9607 11.8389C13.9498 11.5136 13.8517 11.1884 13.7318 10.883C13.7682 10.8275 13.8008 10.772 13.8372 10.7164C14.4513 9.73676 14.9274 8.66192 14.9274 8.66192C14.9274 8.66192 14.9711 8.99108 15.12 9.5385C15.1927 9.81612 15.3417 10.1176 15.4725 10.411C14.8947 10.9227 14.5386 11.5176 14.4114 11.9063C14.1825 12.6281 14.3605 12.9533 14.6985 13.0286C14.8511 13.0644 15.0691 12.985 15.2291 12.9097C15.4325 12.8383 15.6724 12.7154 15.9014 12.5329C16.2903 12.2196 16.6645 11.7833 16.6427 11.1924C16.6318 10.9227 16.5664 10.6569 16.4755 10.3991C16.9661 10.1771 17.5985 10.0541 18.4052 10.1572C20.1351 10.3793 20.4767 11.5572 20.4112 12.0531C20.3459 12.5488 19.9825 12.8185 19.8626 12.9017C19.7426 12.9851 19.7027 13.0128 19.7136 13.0723C19.7281 13.1595 19.7862 13.1556 19.888 13.1397C20.0298 13.112 20.7966 12.7391 20.8292 11.8269C20.8838 10.6609 19.8662 9.38778 18.0673 9.39969ZM4.72282 14.3097C4.1486 14.9919 3.34915 15.2497 3.0039 15.0316C2.63324 14.7975 2.77859 13.7901 3.48358 13.0684C3.91238 12.6281 4.46478 12.2195 4.83186 11.9697C4.9154 11.9142 5.03901 11.8349 5.18802 11.7357C5.21342 11.7198 5.228 11.7119 5.228 11.7119L5.31521 11.6524C5.57317 12.6836 5.32612 13.5919 4.72282 14.3097ZM8.90208 11.2082C8.70217 11.7397 8.28429 13.1001 8.02991 13.0247C7.81185 12.9613 7.67733 11.9301 7.98626 10.9108C8.14252 10.3991 8.4732 9.7883 8.66586 9.55041C8.97837 9.16961 9.32363 9.04263 9.40717 9.19743C9.51262 9.39969 9.0256 10.875 8.90208 11.2082ZM12.3508 13.0088C12.2672 13.0565 12.1873 13.0882 12.1509 13.0644C12.1255 13.0485 12.1873 12.985 12.1873 12.985C12.1873 12.985 12.6198 12.4774 12.7906 12.2473C12.8888 12.1125 13.005 11.9539 13.1286 11.7754V11.8269C13.1286 12.4338 12.5907 12.8423 12.3508 13.0088H12.3508ZM15.011 12.3465C14.9492 12.2989 14.9601 12.1402 15.1673 11.6445C15.2472 11.4501 15.4361 11.1249 15.7596 10.8116C15.796 10.9385 15.8214 11.0615 15.8178 11.1765C15.8141 11.942 15.3127 12.2275 15.011 12.3465Z" fill="white"/>
</g>
<defs>
<clipPath id="clip0_38_112">
<rect width="19.9513" height="16.3306" fill="white" transform="translate(0.899719)"/>
</clipPath>
</defs>
</svg>
